<?xml version="1.0" standalone="no"?>
<!DOCTYPE svg PUBLIC "-//W3C//DTD SVG 20010904//EN"
 "http://www.w3.org/TR/2001/REC-SVG-20010904/DTD/svg10.dtd">
<svg version="1.0" xmlns="http://www.w3.org/2000/svg"
 width="50.000000pt" height="50.000000pt" viewBox="0 0 50.000000 50.000000"
 preserveAspectRatio="xMidYMid meet">

<g transform="translate(0.000000,50.000000) scale(0.100000,-0.100000)"
fill="#000000" stroke="none">
<path d="M0 330 l0 -170 28 -1 c23 -2 24 -2 4 -6 -19 -4 -22 -10 -22 -56 0
-29 -3 -62 -6 -74 l-6 -23 251 0 251 0 0 60 0 60 -95 -2 c-52 0 -98 2 -102 5
-3 4 39 7 95 7 l102 0 0 185 0 185 -250 0 -250 0 0 -170z m385 111 c10 -17
-11 -21 -31 -6 -18 14 -18 14 3 15 12 0 24 -4 28 -9z m45 -37 c0 -8 -4 -12
-10 -9 -5 3 -10 10 -10 16 0 5 5 9 10 9 6 0 10 -7 10 -16z m-40 -54 c0 -26 -3
-31 -10 -20 -5 8 -10 31 -10 50 0 26 3 31 10 20 5 -8 10 -31 10 -50z m-133
-72 c-3 -8 -6 -5 -6 6 -1 11 2 17 5 13 3 -3 4 -12 1 -19z m133 -18 c0 -5 -4
-10 -10 -10 -5 0 -10 5 -10 10 0 6 5 10 10 10 6 0 10 -4 10 -10z m-120 -10 c0
-5 -2 -10 -4 -10 -3 0 -8 5 -11 10 -3 6 -1 10 4 10 6 0 11 -4 11 -10z m105
-40 c-3 -5 -18 -9 -33 -9 l-27 1 30 8 c17 4 31 8 33 9 2 0 0 -3 -3 -9z m-275
-45 l25 -14 -27 -1 c-14 0 -29 -6 -31 -12 -3 -7 -6 -1 -6 15 -1 31 4 32 39 12z
m310 6 c0 -10 -24 -21 -43 -21 -7 0 -3 7 7 15 22 17 36 19 36 6z m-127 -8
c-12 -2 -25 -14 -30 -26 -7 -19 -13 -22 -38 -16 -29 6 -29 7 -4 8 18 1 28 8
32 21 4 15 13 20 34 19 22 -1 24 -3 6 -6z m-103 -7 c0 -2 -11 -6 -25 -8 -14
-3 -25 -1 -25 3 0 5 11 9 25 9 14 0 25 -2 25 -4z m-23 -118 c-3 -8 -6 -5 -6 6
-1 11 2 17 5 13 3 -3 4 -12 1 -19z"/>
</g>
</svg>
